<?xml version="1.0" encoding="UTF-8"?>
<svg id="Layer_1" data-name="Layer 1" xmlns="http://www.w3.org/2000/svg" version="1.1" viewBox="0 0 78.7 26.2">
  <defs>
    <style>
      .cls-1 {
        fill: #442ddf;
      }

      .cls-1, .cls-2 {
        stroke-width: 0px;
      }

      .cls-2 {
        fill: #b153c6;
      }
    </style>
  </defs>
  <path class="cls-1" d="M10.4,0H0v26.2h10.4c2.9,0,5.2-2.3,5.3-5.2V5.2c0-2.9-2.3-5.2-5.2-5.2h0M5.2,21V5.2h2.6c1.4,0,2.6,1.1,2.6,2.6,0,0,0,0,0,0v10.5c0,1.4-1.1,2.6-2.6,2.6,0,0,0,0,0,0h-2.6Z"/>
  <path class="cls-1" d="M73.4,26.2V2.6c0-1.4,1.1-2.6,2.6-2.6h2.6v23.6c0,1.4-1.2,2.6-2.6,2.6h-2.6Z"/>
  <path class="cls-1" d="M51,14.3c-1.2,1.2-2.7,2-4.4,2.4.9,1.1.8,2.8-.4,3.7s-2.8.8-3.7-.4c-.4-.5-.6-1.1-.6-1.7v-1.5h-5.3v6.7c0,1.4,1.2,2.6,2.6,2.6h5.2c4.3,0,7.9-3.5,7.9-7.9,0-1.5-.4-3-1.3-4.3l-.2.2"/>
  <path class="cls-1" d="M41.9,7.9c0-1,.6-1.9,1.5-2.4V0h-6.7v9.3h5.2v-1.4Z"/>
  <path class="cls-1" d="M23.6,10.4V0h-2.6c-1.4,0-2.6,1.2-2.6,2.6h0v6.7h2.6c1,0,1.9.3,2.6,1"/>
  <path class="cls-1" d="M34.1,9.3V2.6c0-1.4-1.2-2.6-2.6-2.6h-2.6v10.4c.7-.7,1.7-1,2.6-1h2.6Z"/>
  <path class="cls-1" d="M55.1,26.2h2.6c1.4,0,2.6-1.2,2.6-2.6,0,0,0,0,0,0h0v-6.6h-5.2v9.3Z"/>
  <path class="cls-1" d="M60.3,9.3v-2.9h0v-3.8c0-1,.4-1.9,1-2.6h-1c-2.9,0-5.2,2.4-5.2,5.2v5.1c.7-.7,1.6-1,2.6-1h2.6Z"/>
  <path class="cls-1" d="M65.6,16.9h0v6.7c0,1.4,1.2,2.6,2.6,2.6h2.6v-12c-1.2,1.7-3.1,2.7-5.2,2.8"/>
  <path class="cls-2" d="M44.6,0v5.2c1.5,0,2.6,1.2,2.6,2.6,0,1.4-1,2.5-2.4,2.6h-13.3c-1.4,0-2.6,1.2-2.6,2.6,0,0,0,0,0,0v7.9h-2.7c-1.4,0-2.6-1.2-2.6-2.6h0v-5.3c0-1.4-1.2-2.6-2.6-2.6h-2.6v10.5c0,2.9,2.4,5.2,5.2,5.2h5.2c2.9,0,5.3-2.4,5.3-5.2h0v-5.3h10.5c4.3-.3,7.6-4.1,7.3-8.4-.3-3.8-3.2-6.9-7-7.3h-.4"/>
  <path class="cls-2" d="M43.1,16.9h0v1.5c0,.8.6,1.4,1.4,1.4h0c.8,0,1.4-.6,1.5-1.4,0-.8-.5-1.4-1.3-1.5,0,0-1.6,0-1.6,0Z"/>
  <path class="cls-2" d="M55.1,13.1c0-1.4,1.2-2.6,2.6-2.6h5.3c1.4.1,2.7-1,2.8-2.4.1-1.4-1-2.7-2.4-2.8h-1.8v-2.6c0-1.4,1.1-2.6,2.5-2.6h1.4c2.9,0,5.2,2.3,5.2,5.2h0v5.3c0,2.9-2.3,5.2-5.2,5.2h-10.4v-2.6Z"/>
</svg>